<svg width="162" height="94" viewBox="0 0 162 94" fill="none" xmlns="http://www.w3.org/2000/svg">
<path id="Vector" d="M135.477 78.8234C135.477 80.235 134.191 81.2522 132.347 81.2522C130.446 81.2522 129.216 80.1728 129.216 78.8234C129.216 77.4741 130.446 76.3946 132.347 76.3946C134.191 76.3946 135.477 77.4741 135.477 78.8234ZM48.6043 76.3946C46.6198 76.3946 45.4738 77.4741 45.4738 78.8234C45.4738 80.1728 46.6198 81.2522 48.6043 81.2522C50.4212 81.2522 51.651 80.235 51.651 78.8234C51.6231 77.4741 50.4212 76.3946 48.6043 76.3946ZM81.4472 76.3324C79.9379 76.3324 79.0155 77.0589 78.7918 78.1384H84.1306C83.879 76.9551 82.9007 76.3324 81.4472 76.3324ZM111.579 76.3946C109.678 76.3946 108.532 77.4741 108.532 78.8234C108.532 80.1728 109.678 81.2522 111.579 81.2522C113.48 81.2522 114.709 80.235 114.709 78.8234C114.709 77.4741 113.48 76.3946 111.579 76.3946ZM141.179 81.8127C141.179 81.875 141.263 81.9165 141.263 82.0411C141.263 82.1033 141.179 82.1449 141.179 82.2694C141.095 82.3317 141.095 82.3732 141.04 82.4355C140.956 82.4978 140.9 82.5393 140.732 82.5393C140.648 82.6016 140.592 82.6016 140.425 82.6016C140.341 82.6016 140.285 82.6016 140.117 82.5393C140.033 82.5393 139.977 82.477 139.894 82.4355C139.81 82.3732 139.754 82.3317 139.754 82.2694C139.67 82.1656 139.67 82.1033 139.67 82.0411C139.67 81.9373 139.67 81.875 139.754 81.8127C139.754 81.7089 139.838 81.6467 139.894 81.5844C139.977 81.5221 140.033 81.5221 140.117 81.4806C140.257 81.4183 140.341 81.4183 140.425 81.4183C140.564 81.4183 140.648 81.4183 140.732 81.4806C140.872 81.5429 140.956 81.5429 141.04 81.5844C141.123 81.6259 141.095 81.7089 141.179 81.8127ZM140.564 82.1033C140.704 82.1033 140.704 82.0411 140.788 82.0411C140.872 81.9788 140.872 81.9373 140.872 81.875C140.872 81.8127 140.872 81.7712 140.788 81.7089C140.704 81.7089 140.648 81.6467 140.481 81.6467H140.033V82.3732H140.257V82.0826H140.341L140.648 82.3732H140.872L140.564 82.1033ZM161.5 10.4643V83.5357C161.5 89.0368 155.49 93.5 148.083 93.5H13.9167C6.50955 93.5 0.5 89.0368 0.5 83.5357V10.4643C0.5 4.96317 6.50955 0.5 13.9167 0.5H148.083C155.49 0.5 161.5 4.96317 161.5 10.4643ZM18.3889 39.4438C18.3889 55.3243 35.7467 68.1949 57.1016 68.1949C64.7043 68.1949 72.1674 66.4926 78.4844 63.3996C58.1078 51.0895 58.2476 27.8603 78.4844 15.5502C72.1674 12.4364 64.7043 10.7549 57.1016 10.7549C35.7467 10.7342 18.3889 23.6254 18.3889 39.4438ZM81 62.0295C100.706 50.6121 100.622 28.3585 81 16.8788C61.3781 28.3585 61.2943 50.6328 81 62.0295ZM41.2252 77.8685C41.2252 76.0625 39.6319 74.8792 37.1163 74.817C35.8306 74.817 34.4609 75.1076 33.5385 76.1663C32.8677 75.3152 31.7217 74.817 30.1285 74.817C29.0663 74.817 28.0042 75.1076 27.1656 75.9379V75.0246H24.8736V82.6431H27.1656C27.1656 78.7196 26.4668 76.3739 29.6813 76.3739C32.5323 76.3739 31.9733 78.4913 31.9733 82.6431H34.1814C34.1814 78.8442 33.4826 76.3739 36.697 76.3739C39.5481 76.3739 38.9891 78.4498 38.9891 82.6431H41.2811V77.8685H41.2252ZM53.7753 75.0246H51.5672V75.9379C50.8125 75.2529 49.7503 74.817 48.2969 74.817C45.4179 74.817 43.2097 76.5192 43.2097 78.8234C43.2097 81.1484 45.4179 82.8299 48.2969 82.8299C49.7503 82.8299 50.8125 82.4355 51.5672 81.7089V82.6638H53.7753V75.0246ZM65.0957 80.3388C65.0957 77.225 58.6948 78.6366 58.6948 77.1835C58.6948 76.0002 62.021 76.187 63.8658 76.9551L64.7882 75.6058C62.1608 74.3395 56.3469 74.3603 56.3469 77.308C56.3469 80.2766 62.7477 79.031 62.7477 80.4219C62.7477 81.7297 58.9743 81.6259 56.9618 80.5879L55.9835 81.8958C59.1141 83.4734 65.0957 83.1413 65.0957 80.3388ZM74.9905 82.2694L74.3755 80.8578C73.3134 81.2937 70.9655 81.7712 70.9655 80.0067V76.5607H74.6271V75.0246H70.9655V72.6995H68.6734V75.0246H66.5491V76.54H68.6734V80.0067C68.6734 83.6603 73.509 82.996 74.9905 82.2694ZM78.708 79.4877H86.3946C86.3946 76.1248 84.3262 74.7962 81.5311 74.7962C78.5682 74.7962 76.4439 76.4362 76.4439 78.8027C76.4439 83.0583 82.7609 83.7641 85.8915 81.7504L84.8293 80.5049C82.6491 81.8335 79.3509 81.7089 78.708 79.4877ZM95.2273 75.0246C93.9415 74.6094 91.9849 74.6509 90.9787 75.9379V75.0246H88.6866V82.6431H90.9787V78.346C90.9787 75.9379 93.634 76.2493 94.5564 76.6022L95.2273 75.0246ZM98.1901 78.8234C98.1901 76.4569 101.432 75.6888 103.976 77.0797L105.038 75.7304C101.796 73.8413 95.8981 74.8792 95.8981 78.8442C95.8981 82.9545 102.159 83.7848 105.038 81.958L103.976 80.6087C101.405 81.958 98.1901 81.1484 98.1901 78.8234ZM116.834 75.0246H114.542V75.9379C112.222 73.6545 106.184 74.9415 106.184 78.8234C106.184 82.8092 112.445 83.9509 114.542 81.7089V82.6638H116.834V75.0246ZM126.253 75.0246C125.582 74.7754 123.179 74.4225 122.005 75.9379V75.0246H119.797V82.6431H122.005V78.346C122.005 76.0625 124.52 76.2078 125.582 76.6022L126.253 75.0246ZM137.518 71.9315H135.31V75.9379C133.018 73.6752 126.952 74.8792 126.952 78.8234C126.952 82.8507 133.241 83.9301 135.31 81.7089V82.6638H137.518V71.9315ZM139.642 56.3415V57.2964H139.866V56.3415H140.397V56.1754H139.111V56.3415H139.642ZM141.487 82.0411C141.487 81.9373 141.487 81.8127 141.403 81.7089C141.319 81.6467 141.263 81.5429 141.179 81.4806C141.095 81.4183 140.956 81.3768 140.872 81.3145C140.732 81.3145 140.564 81.2522 140.425 81.2522C140.341 81.2522 140.201 81.3145 140.033 81.3145C139.894 81.3768 139.81 81.4183 139.726 81.4806C139.586 81.5429 139.502 81.6467 139.502 81.7089C139.418 81.8127 139.418 81.9373 139.418 82.0411C139.418 82.1033 139.418 82.2071 139.502 82.3317C139.502 82.394 139.586 82.4978 139.726 82.56C139.81 82.6223 139.866 82.6638 140.033 82.7261C140.173 82.7884 140.341 82.7884 140.425 82.7884C140.564 82.7884 140.732 82.7884 140.872 82.7261C140.956 82.6638 141.095 82.6223 141.179 82.56C141.263 82.4978 141.319 82.394 141.403 82.3317C141.487 82.2071 141.487 82.1033 141.487 82.0411ZM142.381 56.1547H141.99L141.543 56.8813L141.095 56.1547H140.704V57.2757H140.928V56.4246L141.375 57.1511H141.682L142.074 56.4246V57.2757H142.381V56.1547ZM143.611 39.4438C143.611 23.6254 126.253 10.7342 104.898 10.7342C97.2957 10.7342 89.8326 12.4364 83.5156 15.5295C103.669 27.8395 103.976 51.131 83.5156 63.3788C89.8326 66.4926 97.3516 68.1741 104.898 68.1741C126.253 68.1949 143.611 55.3243 143.611 39.4438Z" fill="#D34121"/>
</svg>
