<svg width="165" height="86" viewBox="0 0 165 86" fill="none" xmlns="http://www.w3.org/2000/svg">
<g id="cc-paypal">
<path d="M0.5 0H149.5C157.784 0 164.5 6.71573 164.5 15V86H15.5C7.21572 86 0.5 79.2843 0.5 71V0Z" fill="#27B2BB"/>
<path id="Vector" d="M53.5438 43.4223C53.5438 45.7643 50.7819 47.5496 47.2799 47.5496C44.6604 47.5496 42.7243 46.5513 42.7243 44.6701C42.7243 42.3281 45.4292 40.4469 48.9028 40.4469C51.5507 40.4469 53.5438 41.5411 53.5438 43.4223ZM23.4201 34.1121H22.0819C21.6549 34.1121 21.2278 34.304 21.1708 34.6304L19.9465 39.7558L22.2812 39.6982C25.4132 39.6982 27.8333 39.4103 28.4028 36.9723C29.0576 34.4 26.6375 34.1121 23.4201 34.1121ZM104.281 34.1121H103C102.488 34.1121 102.146 34.304 102.089 34.6304L100.893 39.7558L103.171 39.6982C106.872 39.6982 109.435 39.1223 109.435 36.2429C109.406 34.208 106.701 34.1121 104.281 34.1121ZM164.5 9.21428V76.7857C164.5 81.8728 158.378 86 150.833 86H14.1667C6.62153 86 0.5 81.8728 0.5 76.7857V9.21428C0.5 4.12723 6.62153 0 14.1667 0H150.833C158.378 0 164.5 4.12723 164.5 9.21428ZM37.0299 35.2062C37.0299 31.175 32.4174 29.8312 27.15 29.8312H15.7611C15.0493 29.8312 14.3375 30.2152 14.2806 30.7335L9.61111 50.333C9.52569 50.717 9.95278 51.1009 10.5222 51.1009H15.9319C16.7007 51.1009 17.4125 50.5442 17.4979 50.0067L18.7792 44.9004C19.0639 43.5183 22.5375 43.9982 23.9042 43.9982C32.0472 43.9982 37.0299 40.7348 37.0299 35.2062ZM61.0035 36.8955H55.5938C54.5118 36.8955 54.4549 37.9513 54.3979 38.4696C52.7465 36.8379 50.3549 36.55 47.65 36.55C40.6743 36.55 35.35 40.6772 35.35 45.2268C35.35 48.9701 38.8236 51.408 44.3757 51.408C46.9382 51.408 50.1271 50.4674 51.9208 49.1237C51.7785 49.4116 51.6361 50.0259 51.6361 50.3138C51.6361 50.7554 51.9208 51.0817 52.5472 51.0817H57.4444C58.2132 51.0817 58.8681 50.525 59.0104 49.9875L61.9146 37.6442C62 37.2795 61.5729 36.8955 61.0035 36.8955ZM72.5347 55.6888L90.6715 37.9129C90.8139 37.817 90.8139 37.721 90.8139 37.5866C90.8139 37.2603 90.3868 36.9147 89.9028 36.9147H84.4361C83.9521 36.9147 83.4396 37.1067 83.1549 37.3946L75.6097 44.8812L72.4778 37.6826C72.25 37.2603 71.6236 36.9147 70.9118 36.9147H65.5875C65.1035 36.9147 64.6764 37.2603 64.6764 37.5866C64.6764 37.817 70.2285 48.4902 70.7125 49.5076C69.9438 50.2371 64.8757 54.9978 64.8757 55.5737C64.8757 55.9192 65.3028 56.188 65.7868 56.188H71.2535C71.766 56.1688 72.25 55.9768 72.5347 55.6888ZM117.891 35.2062C117.891 31.175 113.278 29.8312 108.011 29.8312H96.7076C95.9389 29.8312 95.2271 30.2152 95.1417 30.7335L90.5292 50.3138C90.4722 50.6978 90.8993 51.0817 91.4403 51.0817H97.2771C97.8465 51.0817 98.2736 50.7937 98.416 50.4674L99.6972 44.9004C99.9819 43.5183 103.456 43.9982 104.822 43.9982C112.908 43.9982 117.891 40.7348 117.891 35.2062ZM141.865 36.8955H136.455C135.373 36.8955 135.316 37.9513 135.231 38.4696C133.665 36.8379 131.244 36.55 128.483 36.55C121.507 36.55 116.183 40.6772 116.183 45.2268C116.183 48.9701 119.656 51.408 125.208 51.408C127.856 51.408 131.045 50.4674 132.753 49.1237C132.668 49.4116 132.469 50.0259 132.469 50.3138C132.469 50.7554 132.753 51.0817 133.38 51.0817H138.306C139.074 51.0817 139.729 50.525 139.872 49.9875L142.776 37.6442C142.861 37.2795 142.434 36.8955 141.865 36.8955ZM155.389 30.5031C155.389 30.1192 154.962 29.8312 154.478 29.8312H149.21C148.783 29.8312 148.356 30.0616 148.299 30.3496L143.687 50.3138L143.601 50.4098C143.601 50.7554 144.028 51.0817 144.598 51.0817H149.296C150.008 51.0817 150.719 50.525 150.776 49.9875L155.389 30.5607V30.5031ZM129.764 40.4469C126.29 40.4469 123.585 42.3089 123.585 44.6701C123.585 46.5321 125.578 47.5496 128.198 47.5496C131.615 47.5496 134.376 45.7835 134.376 43.4223C134.405 41.5411 132.412 40.4469 129.764 40.4469Z" fill="#FFC703"/>
</g>
</svg>
