<svg width="162" height="94" viewBox="0 0 162 94" fill="none" xmlns="http://www.w3.org/2000/svg">
<path id="Vector" d="M131.899 41.8725C131.899 41.8725 134.024 49.5949 134.499 51.2141H125.163C126.086 49.3665 129.635 42.1839 129.635 42.1839C129.58 42.2462 130.558 40.2949 131.117 39.0908L131.899 41.8725ZM161.5 10.4643V83.5357C161.5 89.0368 155.49 93.5 148.083 93.5H13.9167C6.50955 93.5 0.5 89.0368 0.5 83.5357V10.4643C0.5 4.96317 6.50955 0.5 13.9167 0.5H148.083C155.49 0.5 161.5 4.96317 161.5 10.4643ZM43.1259 62.6107L60.7911 30.3929H48.9118L37.9269 52.3973L36.725 47.9342L32.8118 33.1123C32.1689 31.0571 30.1844 30.4759 27.7247 30.3929H9.6401L9.44444 31.0364C13.8608 31.8667 17.8019 33.0708 21.2399 34.5862L31.2465 62.6107H43.1259ZM69.512 62.6522L76.5557 30.3929H65.3193L58.3035 62.6522H69.512ZM108.616 52.1067C108.672 48.4324 105.653 45.6299 99.1964 43.3257C95.2552 41.8518 92.8514 40.8554 92.8514 39.34C92.9073 37.9699 94.8918 36.5583 99.3082 36.5583C102.97 36.496 105.653 37.1395 107.666 37.783L108.672 38.1359L110.209 31.1609C108.001 30.5174 104.479 29.7908 100.147 29.7908C89.05 29.7908 81.2516 34.1917 81.1957 40.4609C81.1118 45.0902 86.7859 47.6643 91.0345 49.2212C95.367 50.7989 96.8484 51.8368 96.8484 53.2277C96.7925 55.3866 93.3266 56.383 90.1122 56.383C85.6399 56.383 83.2361 55.8641 79.5745 54.66L78.0931 54.1411L76.5278 61.3859C79.1552 62.2786 84.0187 63.0674 89.05 63.1089C100.845 63.1297 108.532 58.7911 108.616 52.1067ZM148.083 62.6522L139.027 30.3929H130.334C127.651 30.3929 125.61 30.9741 124.464 33.0708L107.777 62.6522H119.573C119.573 62.6522 121.502 58.6665 121.921 57.8154H136.344C136.679 58.9571 137.685 62.6522 137.685 62.6522H148.083Z" fill="#375BDB"/>
</svg>
