<svg width="108" height="97" viewBox="0 0 108 97" fill="none" xmlns="http://www.w3.org/2000/svg">
<g id="Group 1046">
<path id="Subtract (Stroke)" fill-rule="evenodd" clip-rule="evenodd" d="M17.7866 77.1175C17.9261 77.7819 17.5006 78.4335 16.8362 78.573C12.3421 79.5165 8.77349 80.6434 6.35885 81.8646C5.14964 82.4762 4.29169 83.0809 3.75117 83.6477C3.21579 84.2091 3.06283 84.6536 3.06283 84.9896C3.06283 85.3129 3.20379 85.7346 3.68953 86.2655C4.18148 86.8033 4.96567 87.3811 6.07887 87.9698C8.30294 89.146 11.6021 90.2428 15.7825 91.1779C24.1235 93.0436 35.7064 94.2083 48.542 94.2083C61.3776 94.2083 72.9605 93.0436 81.3015 91.1779C85.4819 90.2428 88.781 89.146 91.0051 87.9698C92.1183 87.3811 92.9025 86.8033 93.3945 86.2655C93.8802 85.7346 94.0212 85.3129 94.0212 84.9896C94.0212 84.6536 93.8682 84.2091 93.3328 83.6477C92.7923 83.0809 91.9343 82.4762 90.7251 81.8646C88.3105 80.6434 84.7419 79.5165 80.2478 78.573C79.5834 78.4335 79.1579 77.7819 79.2974 77.1175C79.4369 76.4531 80.0885 76.0276 80.7529 76.1671C85.3375 77.1296 89.144 78.3101 91.8346 79.6709C93.1781 80.3503 94.3053 81.1053 95.1119 81.9511C95.9236 82.8022 96.4795 83.8231 96.4795 84.9896C96.4795 86.1089 95.967 87.0956 95.2083 87.9249C94.4559 88.7474 93.4048 89.4817 92.1544 90.143C89.6513 91.4667 86.1102 92.6213 81.8381 93.5769C73.274 95.4926 61.5027 96.6667 48.542 96.6667C35.5813 96.6667 23.81 95.4926 15.2459 93.5769C10.9738 92.6213 7.43266 91.4667 4.9296 90.143C3.67922 89.4817 2.62812 88.7474 1.87568 87.9249C1.11703 87.0956 0.604492 86.1089 0.604492 84.9896C0.604492 83.8231 1.16043 82.8022 1.97211 81.9511C2.77865 81.1053 3.90591 80.3503 5.24935 79.6709C7.94 78.3101 11.7464 77.1296 16.3311 76.1671C16.9955 76.0276 17.6471 76.4531 17.7866 77.1175Z" fill="#AC7349"/>
<path id="Subtract (Stroke)_2" fill-rule="evenodd" clip-rule="evenodd" d="M84.814 68.0472C84.4725 67.4876 84.3686 66.8147 84.5256 66.1781C84.8836 64.7255 85.1295 63.2142 85.2709 61.6726C85.3374 60.9479 85.7215 60.2899 86.3199 59.8758C86.9183 59.4616 87.6695 59.3339 88.3711 59.527C88.9933 59.6982 89.6508 59.7904 90.3338 59.7904C94.4069 59.7904 97.7088 56.4885 97.7088 52.4154C97.7088 48.3423 94.4069 45.0404 90.3338 45.0404C89.6934 45.0404 89.0755 45.1214 88.4883 45.2726C87.7522 45.462 86.97 45.3004 86.3693 44.8347C85.7687 44.3691 85.4172 43.6518 85.4172 42.8918L85.4172 37.8693C85.4172 36.6686 86.2846 35.6435 87.4688 35.4449C88.4021 35.2883 89.3594 35.207 90.3338 35.207C99.8377 35.207 107.542 42.9115 107.542 52.4154C107.542 61.9193 99.8377 69.6237 90.3338 69.6237C88.9633 69.6237 87.6271 69.463 86.3444 69.1583C85.7065 69.0068 85.1556 68.6068 84.814 68.0472ZM90.1553 62.2471C89.3131 62.2321 88.4967 62.1112 87.719 61.8972C87.6432 62.7228 87.5393 63.5436 87.4056 64.3555C87.2994 65.0003 87.1745 65.6396 87.03 66.2714C86.9922 66.437 86.953 66.602 86.9124 66.7665C87.7032 66.9543 88.5187 67.0785 89.3531 67.1333C89.6773 67.1546 90.0043 67.1654 90.3338 67.1654C98.48 67.1654 105.084 60.5616 105.084 52.4154C105.084 44.2692 98.48 37.6654 90.3338 37.6654C89.4962 37.6654 88.675 37.7352 87.8755 37.8693L87.8755 42.8918C88.6612 42.6896 89.485 42.582 90.3338 42.582C95.7646 42.582 100.167 46.9846 100.167 52.4154C100.167 57.8462 95.7646 62.2487 90.3338 62.2487C90.2742 62.2487 90.2147 62.2482 90.1553 62.2471Z" fill="#AC7349"/>
<path id="Subtract (Stroke)_3" fill-rule="evenodd" clip-rule="evenodd" d="M10.4382 26.6035C11.117 26.6035 11.6673 27.1538 11.6673 27.8327L11.6673 58.5726C11.6673 67.1522 14.6346 75.4578 22.0692 79.4016C28.1477 82.626 36.9054 85.6035 48.5423 85.6035C60.1792 85.6035 68.9369 82.626 75.0154 79.4016C82.45 75.4578 85.4173 67.1522 85.4173 58.5726L85.4173 27.8327C85.4173 27.1538 85.9676 26.6035 86.6465 26.6035C87.3253 26.6035 87.8756 27.1538 87.8756 27.8327L87.8756 58.5726C87.8756 67.5951 84.748 77.0216 76.1674 81.5733C69.7677 84.9681 60.6173 88.0618 48.5423 88.0618C36.4673 88.0618 27.3169 84.9681 20.9172 81.5733C12.3366 77.0216 9.20898 67.5951 9.20898 58.5726L9.20898 27.8327C9.20898 27.1538 9.7593 26.6035 10.4382 26.6035Z" fill="#AC7349"/>
<path id="Subtract" fill-rule="evenodd" clip-rule="evenodd" d="M14.126 33.6816L14.126 59.0908C14.126 65.6919 16.3103 72.2775 21.8797 75.821C27.5246 79.4125 36.3288 83.1443 48.5426 83.1443C60.7565 83.1443 69.5606 79.4125 75.2056 75.821C80.775 72.2775 82.9593 65.6918 82.9593 59.0908L82.9593 33.6816C77.6323 35.2929 64.2317 36.436 48.5426 36.436C32.8536 36.436 19.453 35.2929 14.126 33.6816Z" fill="#75370A"/>
<path id="Subtract_2" d="M75.2053 75.821C80.7746 72.2775 82.959 65.6919 82.959 59.0908L82.959 33.6816C80.0869 34.5504 74.8681 35.283 68.209 35.7737L68.209 79.4356C70.9254 78.3206 73.2541 77.0624 75.2053 75.821Z" fill="#572908"/>
<path id="Subtract_3" d="M21.8797 75.821C16.3103 72.2775 14.126 65.6919 14.126 59.0908L14.126 33.6816C16.4438 34.3827 20.2902 34.9952 25.1885 35.4634L25.1885 77.7265C23.9849 77.1014 22.8825 76.459 21.8797 75.821Z" fill="#8E4917"/>
<path id="Ellipse 1252 (Stroke)" fill-rule="evenodd" clip-rule="evenodd" d="M74.9017 32.7013C68.1077 33.4939 58.7893 33.9779 48.5423 33.9779C38.2953 33.9779 28.9769 33.4939 22.1829 32.7013C18.8024 32.3069 15.9572 31.8261 13.9115 31.2618C12.9077 30.985 11.9536 30.6504 11.1989 30.2201C10.8221 30.0053 10.3779 29.7016 10.0035 29.2714C9.61511 28.8252 9.20898 28.1277 9.20898 27.2174C9.20898 26.3071 9.61511 25.6097 10.0035 25.1635C10.3779 24.7333 10.8221 24.4296 11.1989 24.2148C11.9536 23.7845 12.9077 23.4499 13.9115 23.173C15.9572 22.6088 18.8024 22.128 22.1829 21.7336C28.9769 20.941 38.2953 20.457 48.5423 20.457C58.7893 20.457 68.1077 20.941 74.9017 21.7336C78.2823 22.128 81.1274 22.6088 83.1732 23.173C84.1769 23.4499 85.1311 23.7845 85.8857 24.2148C86.2625 24.4296 86.7067 24.7333 87.0812 25.1635C87.4695 25.6097 87.8756 26.3071 87.8756 27.2174C87.8756 28.1277 87.4695 28.8252 87.0812 29.2714C86.7067 29.7016 86.2625 30.0053 85.8857 30.2201C85.1311 30.6504 84.1769 30.985 83.1732 31.2618C81.1274 31.8261 78.2823 32.3069 74.9017 32.7013ZM48.5423 31.5195C68.9078 31.5195 85.4173 29.5934 85.4173 27.2174C85.4173 24.8415 68.9078 22.9154 48.5423 22.9154C28.1768 22.9154 11.6673 24.8415 11.6673 27.2174C11.6673 29.5934 28.1768 31.5195 48.5423 31.5195Z" fill="#AC7349"/>
<path id="Vector 834 (Stroke)" fill-rule="evenodd" clip-rule="evenodd" d="M19.0426 37.666C19.7215 37.666 20.2718 38.2163 20.2718 38.8952L20.2718 46.2702C20.2718 46.949 19.7215 47.4993 19.0426 47.4993C18.3638 47.4993 17.8135 46.949 17.8135 46.2702L17.8135 38.8952C17.8135 38.2163 18.3638 37.666 19.0426 37.666Z" fill="white"/>
<g id="Milf foam">
<path id="Union" d="M11.667 19.1315C11.667 13.5042 16.2706 8.94233 21.9494 8.94233C22.9276 8.94233 23.8739 9.07769 24.7703 9.33053C26.5766 4.35158 31.3839 0.791016 37.0304 0.791016C42.3968 0.791016 47.0052 4.00711 48.9998 8.60036C50.3546 7.94905 51.8754 7.58378 53.4823 7.58378C57.9737 7.58378 61.7924 10.4373 63.1931 14.4145C65.0845 14.5953 66.7885 15.4107 68.0859 16.6432C69.6649 15.2341 71.755 14.3765 74.0472 14.3765C78.9689 14.3765 82.9587 18.3301 82.9587 23.2071C82.9587 24.4107 82.7157 25.558 82.2757 26.6035C82.2757 26.6035 79.0486 30.291 48.6172 30.291C18.1857 30.291 14.9587 26.6035 14.9587 26.6035C12.934 24.7426 11.667 22.0837 11.667 19.1315Z" fill="white"/>
<g id="Group 1037">
<path id="Ellipse 1600" d="M35.0212 8.16536C35.0212 9.52306 33.9205 10.6237 32.5628 10.6237C31.2051 10.6237 30.1045 9.52306 30.1045 8.16536C30.1045 6.80766 31.2051 5.70703 32.5628 5.70703C33.9205 5.70703 35.0212 6.80766 35.0212 8.16536Z" fill="#D07D1B"/>
<path id="Ellipse 1608" d="M27.6462 14.3118C27.6462 15.6695 26.5455 16.7702 25.1878 16.7702C23.8301 16.7702 22.7295 15.6695 22.7295 14.3118C22.7295 12.9541 23.8301 11.8535 25.1878 11.8535C26.5455 11.8535 27.6462 12.9541 27.6462 14.3118Z" fill="#D07D1B"/>
<path id="Ellipse 1609" d="M36.251 24.7598C36.251 25.778 35.4255 26.6035 34.4072 26.6035C33.389 26.6035 32.5635 25.778 32.5635 24.7598C32.5635 23.7415 33.389 22.916 34.4072 22.916C35.4255 22.916 36.251 23.7415 36.251 24.7598Z" fill="#D07D1B"/>
<path id="Ellipse 1610" d="M46.084 13.6973C46.084 14.7155 45.2585 15.541 44.2402 15.541C43.222 15.541 42.3965 14.7155 42.3965 13.6973C42.3965 12.679 43.222 11.8535 44.2402 11.8535C45.2585 11.8535 46.084 12.679 46.084 13.6973Z" fill="#D07D1B"/>
<path id="Ellipse 1613" d="M60.834 24.7598C60.834 25.778 60.0085 26.6035 58.9902 26.6035C57.972 26.6035 57.1465 25.778 57.1465 24.7598C57.1465 23.7415 57.972 22.916 58.9902 22.916C60.0085 22.916 60.834 23.7415 60.834 24.7598Z" fill="#D07D1B"/>
<path id="Ellipse 1615" d="M54.6882 25.3743C54.6882 26.732 53.5875 27.8327 52.2298 27.8327C50.8721 27.8327 49.7715 26.732 49.7715 25.3743C49.7715 24.0166 50.8721 22.916 52.2298 22.916C53.5875 22.916 54.6882 24.0166 54.6882 25.3743Z" fill="#D07D1B"/>
<path id="Ellipse 1614" d="M66.9801 21.6868C66.9801 23.0445 65.8795 24.1452 64.5218 24.1452C63.1641 24.1452 62.0635 23.0445 62.0635 21.6868C62.0635 20.3291 63.1641 19.2285 64.5218 19.2285C65.8795 19.2285 66.9801 20.3291 66.9801 21.6868Z" fill="#D07D1B"/>
<path id="Ellipse 1606" d="M20.2712 17.9993C20.2712 19.357 19.1705 20.4577 17.8128 20.4577C16.4551 20.4577 15.3545 19.357 15.3545 17.9993C15.3545 16.6416 16.4551 15.541 17.8128 15.541C19.1705 15.541 20.2712 16.6416 20.2712 17.9993Z" fill="#D07D1B"/>
<path id="Ellipse 1604" d="M43.6257 8.16536C43.6257 9.52306 42.525 10.6237 41.1673 10.6237C39.8096 10.6237 38.709 9.52306 38.709 8.16536C38.709 6.80766 39.8096 5.70703 41.1673 5.70703C42.525 5.70703 43.6257 6.80766 43.6257 8.16536Z" fill="#D07D1B"/>
<path id="Ellipse 1611" d="M46.0843 23.5299C46.0843 25.2271 44.7085 26.6029 43.0114 26.6029C41.3143 26.6029 39.9385 25.2271 39.9385 23.5299C39.9385 21.8328 41.3143 20.457 43.0114 20.457C44.7085 20.457 46.0843 21.8328 46.0843 23.5299Z" fill="#D07D1B"/>
<path id="Ellipse 1605" d="M39.9385 16.7695C39.9385 18.8061 38.2875 20.457 36.251 20.457C34.2144 20.457 32.5635 18.8061 32.5635 16.7695C32.5635 14.733 34.2144 13.082 36.251 13.082C38.2875 13.082 39.9385 14.733 39.9385 16.7695Z" fill="#D07D1B"/>
<path id="Ellipse 1607" d="M28.876 22.916C28.876 24.9526 27.225 26.6035 25.1885 26.6035C23.1519 26.6035 21.501 24.9526 21.501 22.916C21.501 20.8795 23.1519 19.2285 25.1885 19.2285C27.225 19.2285 28.876 20.8795 28.876 22.916Z" fill="#D07D1B"/>
<path id="Ellipse 1601" d="M58.3757 16.1556C58.3757 18.5316 56.4495 20.4577 54.0736 20.4577C51.6976 20.4577 49.7715 18.5316 49.7715 16.1556C49.7715 13.7796 51.6976 11.8535 54.0736 11.8535C56.4495 11.8535 58.3757 13.7796 58.3757 16.1556Z" fill="#D07D1B"/>
<path id="Ellipse 1603" d="M78.042 21.6855C78.042 23.7221 76.391 25.373 74.3545 25.373C72.3179 25.373 70.667 23.7221 70.667 21.6855C70.667 19.649 72.3179 17.998 74.3545 17.998C76.391 17.998 78.042 19.649 78.042 21.6855Z" fill="#D07D1B"/>
</g>
</g>
<g id="Group 1040">
<path id="Ellipse 1617" d="M69.4381 68.8426C69.4381 69.83 68.6376 70.6304 67.6502 70.6304C66.6628 70.6304 65.8623 69.83 65.8623 68.8426C65.8623 67.8551 66.6628 67.0547 67.6502 67.0547C68.6376 67.0547 69.4381 67.8551 69.4381 68.8426Z" fill="#572908"/>
<path id="Ellipse 1618" d="M64.0748 65.2664C64.0748 66.2538 63.2743 67.0543 62.2869 67.0543C61.2995 67.0543 60.499 66.2538 60.499 65.2664C60.499 64.279 61.2995 63.4785 62.2869 63.4785C63.2743 63.4785 64.0748 64.279 64.0748 65.2664Z" fill="#572908"/>
<path id="Ellipse 1625" d="M60.7222 60.3484C60.7222 61.3358 59.9218 62.1363 58.9344 62.1363C57.9469 62.1363 57.1465 61.3358 57.1465 60.3484C57.1465 59.361 57.9469 58.5605 58.9344 58.5605C59.9218 58.5605 60.7222 59.361 60.7222 60.3484Z" fill="#572908"/>
<path id="Ellipse 1621" d="M56.0295 66.2725C56.0295 67.0131 55.4291 67.6135 54.6886 67.6135C53.948 67.6135 53.3477 67.0131 53.3477 66.2725C53.3477 65.532 53.948 64.9316 54.6886 64.9316C55.4291 64.9316 56.0295 65.532 56.0295 66.2725Z" fill="#572908"/>
<path id="Ellipse 1626" d="M53.6828 61.1319C53.6828 61.8725 53.0824 62.4728 52.3419 62.4728C51.6013 62.4728 51.001 61.8725 51.001 61.1319C51.001 60.3914 51.6013 59.791 52.3419 59.791C53.0824 59.791 53.6828 60.3914 53.6828 61.1319Z" fill="#572908"/>
<path id="Ellipse 1627" d="M49.9953 68.5069C49.9953 69.2475 49.3949 69.8478 48.6544 69.8478C47.9138 69.8478 47.3135 69.2475 47.3135 68.5069C47.3135 67.7664 47.9138 67.166 48.6544 67.166C49.3949 67.166 49.9953 67.7664 49.9953 68.5069Z" fill="#572908"/>
<path id="Ellipse 1628" d="M49.9953 77.1104C49.9953 77.851 49.3949 78.4513 48.6544 78.4513C47.9138 78.4513 47.3135 77.851 47.3135 77.1104C47.3135 76.3699 47.9138 75.7695 48.6544 75.7695C49.3949 75.7695 49.9953 76.3699 49.9953 77.1104Z" fill="#572908"/>
<path id="Ellipse 1622" d="M56.9234 77.782C56.9234 78.7694 56.123 79.5699 55.1355 79.5699C54.1481 79.5699 53.3477 78.7694 53.3477 77.782C53.3477 76.7946 54.1481 75.9941 55.1355 75.9941C56.123 75.9941 56.9234 76.7946 56.9234 77.782Z" fill="#572908"/>
<path id="Ellipse 1623" d="M53.6828 71.6358C53.6828 72.3764 53.0824 72.9767 52.3419 72.9767C51.6013 72.9767 51.001 72.3764 51.001 71.6358C51.001 70.8953 51.6013 70.2949 52.3419 70.2949C53.0824 70.2949 53.6828 70.8953 53.6828 71.6358Z" fill="#572908"/>
<path id="Ellipse 1619" d="M62.2871 71.9712C62.2871 73.2054 61.2865 74.206 60.0522 74.206C58.818 74.206 57.8174 73.2054 57.8174 71.9712C57.8174 70.7369 58.818 69.7363 60.0522 69.7363C61.2865 69.7363 62.2871 70.7369 62.2871 71.9712Z" fill="#572908"/>
<path id="Ellipse 1624" d="M70.2207 59.5669C70.2207 60.8012 69.2201 61.8017 67.9858 61.8017C66.7516 61.8017 65.751 60.8012 65.751 59.5669C65.751 58.3326 66.7516 57.332 67.9858 57.332C69.2201 57.332 70.2207 58.3326 70.2207 59.5669Z" fill="#572908"/>
<path id="Ellipse 1620" d="M67.65 75.0984C67.65 76.0858 66.8495 76.8863 65.8621 76.8863C64.8747 76.8863 64.0742 76.0858 64.0742 75.0984C64.0742 74.111 64.8747 73.3105 65.8621 73.3105C66.8495 73.3105 67.65 74.111 67.65 75.0984Z" fill="#572908"/>
</g>
</g>
</svg>
